<?xml version="1.0" standalone="no"?>
<!DOCTYPE svg PUBLIC "-//W3C//DTD SVG 20010904//EN"
 "http://www.w3.org/TR/2001/REC-SVG-20010904/DTD/svg10.dtd">
<svg version="1.0" xmlns="http://www.w3.org/2000/svg"
 width="256.000000pt" height="256.000000pt" viewBox="0 0 256.000000 256.000000"
 preserveAspectRatio="xMidYMid meet">
<metadata>
Created by potrace 1.11, written by Peter Selinger 2001-2013
</metadata>
<g transform="translate(0.000000,256.000000) scale(0.100000,-0.100000)"
fill="#000000" stroke="none">
<path d="M1430 2535 c-80 -54 -95 -73 -160 -208 l-65 -136 -50 -9 -50 -9 -116
116 c-64 63 -125 118 -135 122 -56 22 -95 10 -225 -67 -183 -110 -187 -121
-110 -340 l48 -140 -28 -41 -29 -42 -163 2 c-181 1 -206 -5 -243 -60 -28 -42
-90 -289 -81 -324 13 -52 49 -80 193 -150 79 -39 144 -76 144 -82 1 -20 12
-92 15 -95 1 -1 -49 -53 -111 -114 -118 -115 -144 -158 -130 -213 5 -21 92
-174 127 -222 20 -29 67 -53 104 -53 17 0 92 20 169 44 l139 44 47 -35 c47
-35 48 -36 44 -87 -17 -274 -12 -315 42 -351 43 -29 286 -89 327 -81 53 10 82
45 157 186 40 74 73 136 75 137 1 2 23 7 49 12 l46 8 78 -85 c139 -154 160
-172 212 -172 35 0 58 11 186 87 156 92 167 116 122 269 -33 115 -54 184 -59
200 -5 13 60 106 69 100 4 -2 76 -7 160 -10 145 -7 155 -6 197 15 43 22 54 39
70 105 2 10 16 66 30 123 40 160 28 187 -120 266 -196 104 -193 101 -197 146
-4 40 -2 42 86 123 167 152 173 161 163 234 -5 37 -129 256 -169 299 -26 28
-80 47 -110 38 -13 -3 -86 -27 -163 -52 l-141 -47 -32 24 -32 24 0 171 c0 241
2 239 -247 301 -57 14 -73 22 -73 36 0 24 -17 22 -60 -7z"/>
</g>
</svg>
